<svg width="120" height="120" viewBox="0 0 120 120" fill="none" xmlns="http://www.w3.org/2000/svg">
<path d="M59.9997 0.416667C92.9065 0.416667 119.583 27.0929 119.583 59.9997C119.583 92.9066 92.9066 119.583 59.9997 119.583C27.0929 119.583 0.416672 92.9065 0.416672 59.9997C0.41685 27.093 27.093 0.416844 59.9997 0.416667ZM59.9997 11.2497C33.0761 11.2499 11.2499 33.0761 11.2497 59.9997C11.2497 86.9234 33.0759 108.749 59.9997 108.75C86.9236 108.75 108.75 86.9236 108.75 59.9997C108.75 33.0759 86.9235 11.2497 59.9997 11.2497ZM85.4967 42.1637L67.6608 59.9997L85.4967 77.8366L77.8366 85.4967L59.9997 67.6608L42.1637 85.4967L34.5036 77.8366L52.3395 59.9997L34.5036 42.1637L42.1637 34.5036L59.9997 52.3395L77.8366 34.5036L85.4967 42.1637Z" fill="#FF0000"/>
</svg>
