<svg width="120" height="120" viewBox="0 0 120 120" fill="none" xmlns="http://www.w3.org/2000/svg">
<path d="M59.9997 0.416667C92.9065 0.416667 119.583 27.0929 119.583 59.9997C119.583 92.9066 92.9066 119.583 59.9997 119.583C27.0929 119.583 0.416668 92.9065 0.416668 59.9997C0.416846 27.093 27.093 0.416844 59.9997 0.416667ZM59.9997 11.2497C33.0761 11.2499 11.2499 33.0761 11.2497 59.9997C11.2497 86.9234 33.0759 108.749 59.9997 108.75C86.9236 108.75 108.75 86.9236 108.75 59.9997C108.749 33.0759 86.9234 11.2497 59.9997 11.2497ZM85.4967 47.5798L49.1667 83.9108L29.0866 63.8298L36.7467 56.1696L49.1667 68.5895L77.8366 39.9196L85.4967 47.5798Z" fill="#3CFF00"/>
</svg>
